<svg width="195" height="95" viewBox="0 0 195 95" fill="none" xmlns="http://www.w3.org/2000/svg">
<g clip-path="url(#clip0_83_306)">
<path d="M13.125 73.5C11.275 72.1 10.1 71.025 9.6 70.275C9.1 69.475 8.8 68.525 8.7 67.425C8.6 66.525 8.6 65.3 8.7 63.75C8.85 62.2 9.025 60.675 9.225 59.175C9.425 57.675 9.6 56.55 9.75 55.8C10 55.55 10.1 55.225 10.05 54.825C10.05 54.375 10.05 54.15 10.05 54.15C10 53.9 10.175 53.25 10.575 52.2C10.975 51.1 11.35 49.7 11.7 48C12.7 45 13.65 42.5 14.55 40.5C15.5 38.45 16.425 36.7 17.325 35.25C18.225 33.8 19.125 32.475 20.025 31.275C22.075 29.175 23.725 27.6 24.975 26.55C26.225 25.45 27.625 24.55 29.175 23.85C30.175 23.25 31.1 22.775 31.95 22.425C32.8 22.075 33.5 22.025 34.05 22.275C36.85 22.875 38.95 24.025 40.35 25.725C41.75 27.375 42.775 29.95 43.425 33.45C43.775 35.65 43.975 37.65 44.025 39.45C44.125 41.2 44 42.95 43.65 44.7C43.3 46.4 42.65 48.275 41.7 50.325C40.8 52.375 39.525 54.775 37.875 57.525C36.125 60.975 34.15 63.975 31.95 66.525C29.8 69.075 27.575 71.075 25.275 72.525C23.025 74.025 20.825 74.875 18.675 75.075C16.575 75.275 14.725 74.75 13.125 73.5ZM17.925 71.325C19.075 71.175 20.175 70.825 21.225 70.275C22.275 69.725 23.375 68.925 24.525 67.875C25.675 66.775 26.975 65.4 28.425 63.75C29.725 62.25 30.775 61 31.575 60C32.425 58.95 33.125 57.9 33.675 56.85C34.275 55.8 34.825 54.525 35.325 53.025C35.875 51.525 36.5 49.575 37.2 47.175C37.6 45.675 37.9 44.425 38.1 43.425C38.3 42.425 38.425 41.5 38.475 40.65C38.525 39.75 38.525 38.725 38.475 37.575C38.475 36.425 38.475 34.95 38.475 33.15C38.425 32.3 38.25 31.425 37.95 30.525C37.65 29.575 37.3 28.875 36.9 28.425C36.4 27.875 35.7 27.5 34.8 27.3C33.9 27.05 32.9 27.175 31.8 27.675C31.2 27.925 30.425 28.5 29.475 29.4C28.525 30.25 27.525 31.25 26.475 32.4C25.425 33.55 24.425 34.725 23.475 35.925C22.575 37.125 21.825 38.2 21.225 39.15C20.675 40.05 20.4 40.675 20.4 41.025C20.4 41.025 20.375 41.15 20.325 41.4C20.325 41.65 20.225 41.9 20.025 42.15C19.375 42.85 18.65 44.1 17.85 45.9C17.1 47.7 16.375 49.75 15.675 52.05C14.975 54.3 14.375 56.55 13.875 58.8C13.425 61 13.15 62.925 13.05 64.575C12.95 65.925 12.9 66.85 12.9 67.35C12.9 67.85 13 68.25 13.2 68.55C13.4 68.8 13.725 69.3 14.175 70.05C14.475 70.55 14.975 70.925 15.675 71.175C16.425 71.425 17.175 71.475 17.925 71.325ZM52.882 71.175C51.432 71.425 50.107 71.35 48.907 70.95C47.707 70.5 46.732 69.775 45.982 68.775C45.282 67.725 44.932 66.4 44.932 64.8C44.782 63.3 44.957 61.575 45.457 59.625C45.957 57.625 46.682 55.625 47.632 53.625C48.632 51.625 49.707 49.9 50.857 48.45C51.857 47.25 52.857 46.15 53.857 45.15C54.857 44.15 55.757 43.475 56.557 43.125C57.257 42.825 57.907 42.65 58.507 42.6C59.157 42.5 59.682 42.45 60.082 42.45C60.882 42.65 61.732 43.025 62.632 43.575C63.582 44.075 64.057 44.625 64.057 45.225C64.057 45.225 64.107 45.3 64.207 45.45C64.357 45.55 64.432 45.6 64.432 45.6C64.732 45.6 64.982 45.925 65.182 46.575C65.432 47.225 65.582 47.975 65.632 48.825C65.682 49.625 65.557 50.3 65.257 50.85C65.057 51.8 64.707 52.625 64.207 53.325C63.707 54.025 63.257 54.375 62.857 54.375C62.657 54.375 62.457 54.4 62.257 54.45C62.107 54.45 62.032 54.575 62.032 54.825C62.032 55.075 61.882 55.175 61.582 55.125C61.332 55.075 61.057 54.925 60.757 54.675C60.457 54.375 60.232 54.025 60.082 53.625C60.082 53.375 60.182 52.95 60.382 52.35C60.582 51.75 60.782 50.975 60.982 50.025C61.282 48.625 61.257 47.725 60.907 47.325C60.557 46.875 59.882 46.85 58.882 47.25C57.632 47.95 56.432 48.925 55.282 50.175C54.182 51.425 53.157 53.05 52.207 55.05C51.257 57 50.407 59.45 49.657 62.4C49.357 63.55 49.232 64.55 49.282 65.4C49.382 66.25 49.507 66.7 49.657 66.75C50.357 66.95 51.307 67 52.507 66.9C53.707 66.75 54.582 66.525 55.132 66.225C55.932 65.825 56.832 65.3 57.832 64.65C58.832 63.95 59.707 63.325 60.457 62.775C60.707 62.625 61.007 62.375 61.357 62.025C61.707 61.675 62.082 61.4 62.482 61.2C62.882 60.6 63.232 60.25 63.532 60.15C63.832 60.05 64.282 60 64.882 60C65.282 60.1 65.657 60.25 66.007 60.45C66.357 60.65 66.582 60.85 66.682 61.05C66.832 61.25 66.757 61.425 66.457 61.575C66.257 61.575 66.132 61.65 66.082 61.8C66.082 61.9 66.082 61.95 66.082 61.95C66.182 62.15 65.957 62.575 65.407 63.225C64.907 63.825 64.257 64.5 63.457 65.25C62.657 66 61.882 66.65 61.132 67.2C60.432 67.7 59.932 67.95 59.632 67.95C59.132 67.95 58.882 68.1 58.882 68.4C58.882 68.5 58.507 68.75 57.757 69.15C57.057 69.55 56.232 69.95 55.282 70.35C54.382 70.75 53.582 71.025 52.882 71.175ZM84.5672 69.375C83.5172 70.275 82.2922 70.8 80.8922 70.95C79.5422 71.1 78.2172 70.9 76.9172 70.35C75.6172 69.75 74.5422 68.85 73.6922 67.65C72.8422 66.55 72.2922 65.3 72.0422 63.9C71.7922 62.45 71.7672 60.575 71.9672 58.275C72.1172 56.325 72.7422 54.375 73.8422 52.425C74.9422 50.425 76.2672 48.65 77.8172 47.1C79.4172 45.55 80.9922 44.475 82.5422 43.875C83.2922 43.375 83.9172 43.15 84.4172 43.2C84.9672 43.2 85.7922 43.25 86.8922 43.35C88.0422 43.5 88.8922 43.725 89.4422 44.025C90.0422 44.325 90.5172 44.725 90.8672 45.225C91.6172 45.975 92.1172 46.725 92.3672 47.475C92.6172 48.175 92.7422 48.875 92.7422 49.575C92.5422 50.675 91.7922 52.025 90.4922 53.625C89.2422 55.175 87.5922 56.45 85.5422 57.45C84.4422 57.8 83.2422 57.95 81.9422 57.9C80.6422 57.85 79.5672 57.525 78.7172 56.925C77.7672 56.525 77.1422 56.6 76.8422 57.15C76.5422 57.65 76.2672 58.9 76.0172 60.9C75.8172 62.8 75.9672 64.2 76.4672 65.1C76.9672 65.95 77.6422 66.45 78.4922 66.6C79.4922 66.8 80.2672 66.95 80.8172 67.05C81.4172 67.1 82.1422 66.875 82.9922 66.375C83.7922 65.875 84.2922 65.6 84.4922 65.55C84.6922 65.45 84.8422 65.35 84.9422 65.25C85.0922 65.1 85.4172 64.775 85.9172 64.275C86.2672 63.925 86.5422 63.675 86.7422 63.525C86.9422 63.325 87.1672 63.225 87.4172 63.225C87.6672 63.225 87.8922 63.35 88.0922 63.6C88.2922 63.8 88.4922 63.95 88.6922 64.05C89.1922 64.05 89.2922 64.35 88.9922 64.95C88.7422 65.55 88.2172 66.275 87.4172 67.125C86.6172 67.925 85.6672 68.675 84.5672 69.375ZM84.4922 53.475C85.0422 53.225 85.6172 52.875 86.2172 52.425C86.8172 51.925 87.3172 51.4 87.7172 50.85C88.1672 50.25 88.3922 49.75 88.3922 49.35C88.3922 48.65 88.0672 48.075 87.4172 47.625C86.7672 47.125 85.7922 47.05 84.4922 47.4C83.9422 47.55 83.3172 47.925 82.6172 48.525C81.9172 49.075 81.2422 49.7 80.5922 50.4C79.9922 51.1 79.4922 51.725 79.0922 52.275C78.7422 52.825 78.6172 53.15 78.7172 53.25C78.8672 53.5 79.2922 53.7 79.9922 53.85C80.6922 53.95 81.4672 53.975 82.3172 53.925C83.2172 53.875 83.9422 53.725 84.4922 53.475ZM102.132 69.825C101.732 69.925 101.207 69.975 100.557 69.975C99.9068 69.925 99.3318 69.85 98.8318 69.75C98.3818 69.6 98.1568 69.45 98.1568 69.3C98.1568 69.05 98.0318 68.925 97.7818 68.925C97.7818 68.925 97.6568 68.825 97.4068 68.625C97.2068 68.425 96.8818 68.225 96.4318 68.025C95.9818 67.325 95.7568 66.575 95.7568 65.775C95.7568 64.925 95.9818 63.6 96.4318 61.8C96.5818 60.55 97.0568 59.1 97.8568 57.45C98.7068 55.75 99.7318 54.025 100.932 52.275C102.132 50.525 103.382 48.95 104.682 47.55C106.032 46.15 107.257 45.125 108.357 44.475C109.057 43.775 109.907 43.4 110.907 43.35C111.907 43.3 112.857 43.525 113.757 44.025C114.257 44.275 114.757 44.675 115.257 45.225C115.757 45.775 116.232 46.375 116.682 47.025C117.132 47.675 117.507 48.325 117.807 48.975C117.957 49.525 118.032 50.025 118.032 50.475C118.082 50.875 118.082 51.375 118.032 51.975C118.032 52.575 117.957 53.475 117.807 54.675C117.557 55.575 117.332 56.675 117.132 57.975C116.982 59.275 116.907 60.4 116.907 61.35C116.807 62.3 116.907 62.975 117.207 63.375C117.557 63.775 118.057 63.8 118.707 63.45C119.307 63.15 119.882 63.025 120.432 63.075C120.982 63.075 121.407 63.225 121.707 63.525C122.057 63.825 122.232 64.275 122.232 64.875C122.232 65.475 121.932 66.1 121.332 66.75C120.782 67.35 120.082 67.875 119.232 68.325C118.432 68.725 117.657 68.925 116.907 68.925C116.357 68.925 115.832 68.6 115.332 67.95C114.832 67.25 114.382 66.425 113.982 65.475C113.632 64.475 113.307 63.525 113.007 62.625L112.557 60.9L109.332 63.975C108.682 64.675 108.032 65.325 107.382 65.925C106.782 66.475 106.407 66.875 106.257 67.125C106.007 67.575 105.532 68.025 104.832 68.475C104.182 68.925 103.282 69.375 102.132 69.825ZM102.357 65.4C103.207 64.9 104.182 64.175 105.282 63.225C106.382 62.225 107.457 61.15 108.507 60C109.557 58.8 110.432 57.7 111.132 56.7C111.982 55.55 112.632 54.475 113.082 53.475C113.532 52.475 113.857 51.525 114.057 50.625C113.857 50.075 113.532 49.5 113.082 48.9C112.632 48.25 112.232 47.9 111.882 47.85C110.782 47.85 109.607 48.55 108.357 49.95C107.157 51.3 105.982 52.775 104.832 54.375C104.632 54.625 104.357 55.025 104.007 55.575C103.657 56.125 103.307 56.65 102.957 57.15C102.657 57.6 102.457 57.9 102.357 58.05C102.207 58.25 101.907 58.825 101.457 59.775C101.057 60.675 100.657 61.6 100.257 62.55C99.8568 63.45 99.6568 64.05 99.6568 64.35C99.6568 64.65 99.6818 64.975 99.7318 65.325C99.8318 65.675 100.082 65.9 100.482 66C100.882 66.1 101.507 65.9 102.357 65.4ZM149.109 71.1C148.609 71.1 148.084 70.825 147.534 70.275C147.034 69.725 146.584 69.05 146.184 68.25C145.834 67.4 145.659 66.6 145.659 65.85C145.659 65.1 145.834 63.7 146.184 61.65C146.584 59.6 147.059 57.525 147.609 55.425C148.009 54.125 148.134 53.375 147.984 53.175C147.834 52.975 147.159 53.25 145.959 54C145.259 54.35 144.634 54.725 144.084 55.125C143.534 55.475 143.059 55.875 142.659 56.325C142.409 56.525 142.034 56.85 141.534 57.3C141.034 57.75 140.509 58.175 139.959 58.575C139.309 59.075 138.484 59.775 137.484 60.675C136.484 61.575 135.484 62.475 134.484 63.375C133.534 64.275 132.809 64.975 132.309 65.475C132.209 65.675 132.059 65.85 131.859 66C131.659 66.15 131.434 66.25 131.184 66.3C130.934 66.3 130.659 66.25 130.359 66.15C129.809 66 129.284 65.675 128.784 65.175C128.334 64.675 128.109 64.1 128.109 63.45C128.109 62.95 128.309 62.1 128.709 60.9C129.109 59.65 129.634 58.15 130.284 56.4C130.984 54.65 131.784 52.8 132.684 50.85C132.834 50.6 132.959 50.3 133.059 49.95C133.159 49.55 133.234 49.125 133.284 48.675C133.384 48.225 133.434 47.8 133.434 47.4C133.434 47.15 133.459 46.9 133.509 46.65C133.609 46.35 133.709 46.075 133.809 45.825C133.959 45.525 134.084 45.325 134.184 45.225C134.384 44.825 134.734 44.725 135.234 44.925C135.734 45.075 136.159 45.425 136.509 45.975C137.259 46.675 137.634 47.55 137.634 48.6C137.684 49.65 137.434 50.95 136.884 52.5C136.684 52.85 136.509 53.2 136.359 53.55C136.259 53.85 136.159 54.125 136.059 54.375C135.959 54.575 135.884 54.75 135.834 54.9C135.784 55 135.759 55.05 135.759 55.05C135.959 55.05 136.409 54.825 137.109 54.375C137.809 53.925 138.634 53.425 139.584 52.875C140.334 52.325 140.984 51.825 141.534 51.375C142.134 50.875 142.634 50.5 143.034 50.25C143.434 49.95 143.684 49.8 143.784 49.8C143.984 49.8 144.234 49.725 144.534 49.575C144.834 49.425 145.084 49.25 145.284 49.05C145.484 48.85 145.634 48.75 145.734 48.75C145.884 48.7 145.959 48.675 145.959 48.675C145.959 48.675 146.059 48.675 146.259 48.675C146.459 48.625 146.659 48.5 146.859 48.3C147.259 48 147.784 47.925 148.434 48.075C149.084 48.175 149.684 48.425 150.234 48.825C150.784 49.225 151.059 49.675 151.059 50.175C151.059 50.375 151.109 50.55 151.209 50.7C151.359 50.8 151.434 50.85 151.434 50.85C151.834 50.85 152.084 51.475 152.184 52.725C152.334 53.975 152.209 55.175 151.809 56.325C151.809 57.075 151.659 57.975 151.359 59.025C151.109 60.075 150.884 61.075 150.684 62.025C150.284 63.275 150.009 64.375 149.859 65.325C149.709 66.275 149.684 67.075 149.784 67.725C149.884 68.375 150.059 68.9 150.309 69.3C150.509 69.65 150.509 70.05 150.309 70.5C150.109 70.9 149.709 71.1 149.109 71.1ZM161.049 68.325C160.849 68.325 160.599 68.275 160.299 68.175C160.049 68.025 159.924 67.95 159.924 67.95C159.924 67.75 159.849 67.5 159.699 67.2C159.599 66.9 159.549 66.65 159.549 66.45C159.199 66.25 158.999 66.05 158.949 65.85C158.899 65.6 158.974 65.2 159.174 64.65C159.474 64.15 159.874 63.35 160.374 62.25C160.874 61.1 161.399 59.875 161.949 58.575C162.499 57.225 163.024 55.9 163.524 54.6C164.024 53.3 164.449 52.2 164.799 51.3C165.149 50.35 165.349 49.775 165.399 49.575C165.399 49.375 165.474 49.125 165.624 48.825C165.774 48.525 165.949 48.275 166.149 48.075C166.549 47.725 166.974 47.7 167.424 48C167.874 48.25 168.249 48.7 168.549 49.35C168.899 49.95 169.074 50.625 169.074 51.375C169.074 51.725 168.824 52.625 168.324 54.075C167.824 55.475 167.149 57.15 166.299 59.1C165.499 61.05 164.599 63.025 163.599 65.025C162.849 66.475 162.374 67.4 162.174 67.8C161.974 68.15 161.599 68.325 161.049 68.325ZM172.074 39.9C171.474 39.9 170.824 39.675 170.124 39.225C169.474 38.725 168.899 38.125 168.399 37.425C167.949 36.675 167.724 35.925 167.724 35.175C167.724 34.925 167.874 34.575 168.174 34.125C168.474 33.675 168.774 33.225 169.074 32.775C169.374 32.325 169.524 32.05 169.524 31.95C169.924 31.95 170.224 31.975 170.424 32.025C170.674 32.025 170.974 32.125 171.324 32.325C171.874 33.575 172.549 34.6 173.349 35.4C174.199 36.2 174.624 36.875 174.624 37.425C174.624 38.525 174.524 39.225 174.324 39.525C174.124 39.775 173.374 39.9 172.074 39.9ZM184.413 70.05C183.763 70.35 183.013 70.475 182.163 70.425C181.313 70.375 180.163 70.1 178.713 69.6C178.613 69.6 178.388 69.5 178.038 69.3C177.738 69.1 177.413 68.85 177.063 68.55C176.763 68.2 176.513 67.825 176.313 67.425C175.513 66.275 175.188 64.575 175.338 62.325C175.488 60.075 176.188 57.375 177.438 54.225C177.788 53.475 178.313 52.525 179.013 51.375C179.763 50.225 180.488 49.175 181.188 48.225C181.938 47.225 182.463 46.65 182.763 46.5C182.763 46.5 183.038 46.4 183.588 46.2C184.138 46 184.838 45.675 185.688 45.225C185.938 45.125 186.213 45.025 186.513 44.925C186.863 44.825 187.213 44.75 187.563 44.7C187.913 44.65 188.213 44.65 188.463 44.7C189.463 44.75 190.488 45.125 191.538 45.825C192.638 46.475 193.538 47.25 194.238 48.15C194.938 49 195.163 49.75 194.913 50.4C194.913 50.5 194.763 50.7 194.463 51C194.213 51.25 193.913 51.525 193.563 51.825C193.263 52.075 193.013 52.325 192.813 52.575C192.563 52.875 192.213 53 191.763 52.95C191.363 52.9 190.988 52.7 190.638 52.35C190.338 51.95 190.163 51.45 190.113 50.85C190.013 50.45 189.638 50.075 188.988 49.725C188.388 49.375 188.088 49.2 188.088 49.2C187.688 49.2 187.113 49.575 186.363 50.325C185.663 51.025 184.963 51.875 184.263 52.875C183.363 53.775 182.588 54.85 181.938 56.1C181.288 57.3 180.763 58.45 180.363 59.55C180.013 60.6 179.763 61.35 179.613 61.8C179.413 62.3 179.388 63 179.538 63.9C179.688 64.8 179.863 65.35 180.063 65.55C180.263 65.65 180.763 65.675 181.563 65.625C182.413 65.575 183.413 65.475 184.563 65.325C185.713 65.125 186.838 64.9 187.938 64.65C189.038 64.4 189.938 64.125 190.638 63.825C191.588 63.225 192.413 62.875 193.113 62.775C193.813 62.675 194.338 62.675 194.688 62.775C195.238 62.975 195.563 63.25 195.663 63.6C195.763 63.95 195.638 64.35 195.288 64.8C194.938 65.2 194.338 65.625 193.488 66.075C192.688 66.475 191.963 66.925 191.313 67.425C190.713 67.875 190.413 68.225 190.413 68.475C190.213 68.475 189.988 68.55 189.738 68.7C189.538 68.8 189.363 68.825 189.213 68.775C189.113 68.775 188.713 68.85 188.013 69C187.313 69.15 186.588 69.325 185.838 69.525C185.138 69.725 184.663 69.9 184.413 70.05Z" fill="white"/>
<path d="M53.233 92V81.8182H56.6733C57.4721 81.8182 58.125 81.9624 58.6321 82.2507C59.1425 82.5357 59.5204 82.9219 59.7656 83.4091C60.0109 83.8963 60.1335 84.4399 60.1335 85.0398C60.1335 85.6397 60.0109 86.1849 59.7656 86.6754C59.5237 87.166 59.1491 87.5571 58.642 87.8487C58.1349 88.1371 57.4853 88.2812 56.6932 88.2812H54.2273V87.1875H56.6534C57.2003 87.1875 57.6394 87.093 57.9709 86.9041C58.3023 86.7152 58.5426 86.46 58.6918 86.1385C58.8442 85.8137 58.9205 85.4474 58.9205 85.0398C58.9205 84.6321 58.8442 84.2675 58.6918 83.946C58.5426 83.6245 58.3007 83.3726 57.9659 83.1903C57.6312 83.0047 57.187 82.9119 56.6335 82.9119H54.4659V92H53.233ZM64.2077 92.179C63.7238 92.179 63.2847 92.0878 62.8903 91.9055C62.4959 91.7199 62.1826 91.4531 61.9506 91.1051C61.7186 90.7538 61.6026 90.3295 61.6026 89.8324C61.6026 89.3949 61.6888 89.0402 61.8612 88.7685C62.0335 88.4934 62.2638 88.2779 62.5522 88.1222C62.8406 87.9664 63.1587 87.8504 63.5067 87.7741C63.8581 87.6946 64.2111 87.6316 64.5657 87.5852C65.0297 87.5256 65.4059 87.4808 65.6942 87.451C65.9859 87.4179 66.198 87.3632 66.3306 87.2869C66.4665 87.2107 66.5344 87.0781 66.5344 86.8892V86.8494C66.5344 86.3589 66.4002 85.9777 66.1317 85.706C65.8666 85.4342 65.4639 85.2983 64.9237 85.2983C64.3635 85.2983 63.9244 85.4209 63.6062 85.6662C63.288 85.9115 63.0643 86.1733 62.935 86.4517L61.8214 86.054C62.0202 85.59 62.2854 85.2287 62.6168 84.9702C62.9516 84.7083 63.3162 84.526 63.7106 84.4233C64.1083 84.3172 64.4994 84.2642 64.8839 84.2642C65.1291 84.2642 65.4109 84.294 65.729 84.3537C66.0505 84.41 66.3604 84.5277 66.6587 84.7067C66.9603 84.8857 67.2106 85.1558 67.4094 85.517C67.6083 85.8783 67.7077 86.3622 67.7077 86.9688V92H66.5344V90.9659H66.4748C66.3952 91.1316 66.2627 91.3089 66.0771 91.4979C65.8915 91.6868 65.6445 91.8475 65.3363 91.9801C65.0281 92.1127 64.6519 92.179 64.2077 92.179ZM64.3867 91.125C64.8507 91.125 65.2418 91.0339 65.56 90.8516C65.8815 90.6693 66.1235 90.4339 66.2859 90.1456C66.4516 89.8572 66.5344 89.554 66.5344 89.2358V88.1619C66.4847 88.2216 66.3754 88.2763 66.2063 88.326C66.0406 88.3724 65.8484 88.4138 65.6296 88.4503C65.4142 88.4834 65.2037 88.5133 64.9982 88.5398C64.796 88.563 64.632 88.5829 64.506 88.5994C64.2011 88.6392 63.9161 88.7038 63.6509 88.7933C63.3891 88.8795 63.177 89.0104 63.0146 89.1861C62.8555 89.3584 62.7759 89.5937 62.7759 89.892C62.7759 90.2997 62.9267 90.608 63.2283 90.8168C63.5333 91.0223 63.9194 91.125 64.3867 91.125ZM69.8493 92V84.3636H70.9828V85.517H71.0623C71.2015 85.1392 71.4534 84.8326 71.818 84.5973C72.1826 84.362 72.5936 84.2443 73.051 84.2443C73.1371 84.2443 73.2449 84.246 73.3741 84.2493C73.5034 84.2526 73.6011 84.2576 73.6674 84.2642V85.4574C73.6277 85.4474 73.5365 85.4325 73.394 85.4126C73.2548 85.3894 73.1073 85.3778 72.9515 85.3778C72.5803 85.3778 72.2489 85.4557 71.9572 85.6115C71.6689 85.764 71.4402 85.9761 71.2711 86.2479C71.1054 86.5163 71.0225 86.8229 71.0225 87.1676V92H69.8493ZM77.3054 92.179C76.8215 92.179 76.3823 92.0878 75.9879 91.9055C75.5935 91.7199 75.2803 91.4531 75.0483 91.1051C74.8163 90.7538 74.7003 90.3295 74.7003 89.8324C74.7003 89.3949 74.7865 89.0402 74.9588 88.7685C75.1312 88.4934 75.3615 88.2779 75.6499 88.1222C75.9382 87.9664 76.2564 87.8504 76.6044 87.7741C76.9557 87.6946 77.3087 87.6316 77.6634 87.5852C78.1274 87.5256 78.5036 87.4808 78.7919 87.451C79.0836 87.4179 79.2957 87.3632 79.4283 87.2869C79.5642 87.2107 79.6321 87.0781 79.6321 86.8892V86.8494C79.6321 86.3589 79.4979 85.9777 79.2294 85.706C78.9643 85.4342 78.5616 85.2983 78.0213 85.2983C77.4612 85.2983 77.022 85.4209 76.7038 85.6662C76.3857 85.9115 76.1619 86.1733 76.0327 86.4517L74.919 86.054C75.1179 85.59 75.383 85.2287 75.7145 84.9702C76.0492 84.7083 76.4138 84.526 76.8082 84.4233C77.206 84.3172 77.5971 84.2642 77.9815 84.2642C78.2268 84.2642 78.5085 84.294 78.8267 84.3537C79.1482 84.41 79.4581 84.5277 79.7564 84.7067C80.058 84.8857 80.3082 85.1558 80.5071 85.517C80.706 85.8783 80.8054 86.3622 80.8054 86.9688V92H79.6321V90.9659H79.5724C79.4929 91.1316 79.3603 91.3089 79.1747 91.4979C78.9891 91.6868 78.7422 91.8475 78.4339 91.9801C78.1257 92.1127 77.7495 92.179 77.3054 92.179ZM77.4844 91.125C77.9484 91.125 78.3395 91.0339 78.6577 90.8516C78.9792 90.6693 79.2211 90.4339 79.3835 90.1456C79.5492 89.8572 79.6321 89.554 79.6321 89.2358V88.1619C79.5824 88.2216 79.473 88.2763 79.304 88.326C79.1383 88.3724 78.946 88.4138 78.7273 88.4503C78.5118 88.4834 78.3014 88.5133 78.0959 88.5398C77.8937 88.563 77.7296 88.5829 77.6037 88.5994C77.2988 88.6392 77.0137 88.7038 76.7486 88.7933C76.4867 88.8795 76.2746 89.0104 76.1122 89.1861C75.9531 89.3584 75.8736 89.5937 75.8736 89.892C75.8736 90.2997 76.0244 90.608 76.326 90.8168C76.6309 91.0223 77.017 91.125 77.4844 91.125ZM87.4611 92H86.1685L89.9071 81.8182H91.1799L94.9185 92H93.6259L90.5833 83.429H90.5037L87.4611 92ZM87.9384 88.0227H93.1486V89.1165H87.9384V88.0227ZM97.5186 81.8182V92H96.3453V81.8182H97.5186ZM104.48 88.8778V84.3636H105.653V92H104.48V90.7074H104.401C104.222 91.0952 103.943 91.425 103.565 91.6967C103.188 91.9652 102.71 92.0994 102.134 92.0994C101.656 92.0994 101.232 91.995 100.861 91.7862C100.49 91.5741 100.198 91.2559 99.9858 90.8317C99.7737 90.4041 99.6676 89.8655 99.6676 89.2159V84.3636H100.841V89.1364C100.841 89.6932 100.997 90.1373 101.308 90.4688C101.623 90.8002 102.024 90.9659 102.511 90.9659C102.803 90.9659 103.1 90.8913 103.401 90.7422C103.706 90.593 103.961 90.3643 104.167 90.0561C104.376 89.7479 104.48 89.3551 104.48 88.8778ZM107.802 92V84.3636H108.936V85.5568H109.035C109.194 85.1491 109.451 84.8326 109.806 84.6072C110.161 84.3786 110.586 84.2642 111.084 84.2642C111.587 84.2642 112.007 84.3786 112.341 84.6072C112.68 84.8326 112.943 85.1491 113.132 85.5568H113.211C113.407 85.1624 113.7 84.8492 114.091 84.6172C114.483 84.3819 114.952 84.2642 115.498 84.2642C116.181 84.2642 116.74 84.478 117.174 84.9055C117.608 85.3298 117.825 85.991 117.825 86.8892V92H116.652V86.8892C116.652 86.3258 116.498 85.9231 116.189 85.6811C115.881 85.4392 115.518 85.3182 115.101 85.3182C114.564 85.3182 114.148 85.4806 113.853 85.8054C113.558 86.1269 113.41 86.5346 113.41 87.0284V92H112.217V86.7699C112.217 86.3357 112.076 85.986 111.795 85.7209C111.513 85.4524 111.15 85.3182 110.706 85.3182C110.401 85.3182 110.116 85.3994 109.851 85.5618C109.589 85.7242 109.377 85.9496 109.214 86.2379C109.055 86.523 108.976 86.8527 108.976 87.2273V92H107.802ZM121.144 87.4062V92H119.97V84.3636H121.104V85.5568H121.203C121.382 85.169 121.654 84.8575 122.019 84.6222C122.383 84.3835 122.854 84.2642 123.431 84.2642C123.948 84.2642 124.4 84.3703 124.788 84.5824C125.176 84.7912 125.477 85.1094 125.693 85.5369C125.908 85.9612 126.016 86.4981 126.016 87.1477V92H124.843V87.2273C124.843 86.6274 124.687 86.16 124.375 85.8253C124.064 85.4872 123.636 85.3182 123.093 85.3182C122.718 85.3182 122.383 85.3994 122.088 85.5618C121.797 85.7242 121.566 85.9612 121.397 86.2727C121.228 86.5843 121.144 86.9621 121.144 87.4062ZM131.262 92.1591C130.573 92.1591 129.968 91.995 129.447 91.6669C128.93 91.3388 128.526 90.8797 128.234 90.2898C127.946 89.6998 127.802 89.0104 127.802 88.2216C127.802 87.4261 127.946 86.7318 128.234 86.1385C128.526 85.5452 128.93 85.0845 129.447 84.7564C129.968 84.4283 130.573 84.2642 131.262 84.2642C131.951 84.2642 132.555 84.4283 133.072 84.7564C133.592 85.0845 133.996 85.5452 134.285 86.1385C134.576 86.7318 134.722 87.4261 134.722 88.2216C134.722 89.0104 134.576 89.6998 134.285 90.2898C133.996 90.8797 133.592 91.3388 133.072 91.6669C132.555 91.995 131.951 92.1591 131.262 92.1591ZM131.262 91.1051C131.786 91.1051 132.217 90.9709 132.555 90.7024C132.893 90.4339 133.143 90.081 133.305 89.6435C133.468 89.206 133.549 88.732 133.549 88.2216C133.549 87.7112 133.468 87.2356 133.305 86.7947C133.143 86.3539 132.893 85.9976 132.555 85.7259C132.217 85.4541 131.786 85.3182 131.262 85.3182C130.738 85.3182 130.308 85.4541 129.969 85.7259C129.631 85.9976 129.381 86.3539 129.219 86.7947C129.056 87.2356 128.975 87.7112 128.975 88.2216C128.975 88.732 129.056 89.206 129.219 89.6435C129.381 90.081 129.631 90.4339 129.969 90.7024C130.308 90.9709 130.738 91.1051 131.262 91.1051ZM141.922 86.0739L140.868 86.3722C140.802 86.1965 140.704 86.0258 140.575 85.8601C140.449 85.6911 140.277 85.5518 140.058 85.4425C139.839 85.3331 139.559 85.2784 139.218 85.2784C138.751 85.2784 138.361 85.3861 138.05 85.6016C137.741 85.8137 137.587 86.0838 137.587 86.4119C137.587 86.7036 137.693 86.9339 137.905 87.103C138.117 87.272 138.449 87.4129 138.9 87.5256L140.033 87.804C140.716 87.9697 141.225 88.2232 141.559 88.5646C141.894 88.9027 142.062 89.3385 142.062 89.8722C142.062 90.3097 141.936 90.7008 141.684 91.0455C141.435 91.3902 141.087 91.6619 140.64 91.8608C140.192 92.0597 139.672 92.1591 139.079 92.1591C138.3 92.1591 137.655 91.9901 137.145 91.652C136.634 91.3139 136.311 90.8201 136.175 90.1705L137.289 89.892C137.395 90.303 137.595 90.6113 137.89 90.8168C138.189 91.0223 138.578 91.125 139.059 91.125C139.606 91.125 140.04 91.009 140.361 90.777C140.686 90.5417 140.849 90.2599 140.849 89.9318C140.849 89.6667 140.756 89.4446 140.57 89.2656C140.385 89.0833 140.099 88.9474 139.715 88.858L138.442 88.5597C137.743 88.3939 137.229 88.1371 136.901 87.7891C136.576 87.4377 136.414 86.9986 136.414 86.4716C136.414 86.0407 136.535 85.6596 136.777 85.3281C137.022 84.9967 137.355 84.7365 137.776 84.5476C138.2 84.3587 138.681 84.2642 139.218 84.2642C139.974 84.2642 140.567 84.4299 140.998 84.7614C141.432 85.0928 141.74 85.5303 141.922 86.0739Z" fill="white"/>
</g>
<defs>
<clipPath id="clip0_83_306">
<rect width="195" height="95" fill="white"/>
</clipPath>
</defs>
</svg>
